<?xml version="1.0" encoding="UTF-8" standalone="no"?>
<!-- Created with Inkscape (http://www.inkscape.org/) -->

<svg
   xmlns:dc="http://purl.org/dc/elements/1.1/"
   xmlns:cc="http://creativecommons.org/ns#"
   xmlns:rdf="http://www.w3.org/1999/02/22-rdf-syntax-ns#"
   xmlns:svg="http://www.w3.org/2000/svg"
   xmlns="http://www.w3.org/2000/svg"
   xmlns:sodipodi="http://sodipodi.sourceforge.net/DTD/sodipodi-0.dtd"
   xmlns:inkscape="http://www.inkscape.org/namespaces/inkscape"
   width="162.59325mm"
   height="120.27869mm"
   viewBox="0 0 162.59325 120.27869"
   version="1.1"
   id="svg8"
   inkscape:version="0.92.2 5c3e80d, 2017-08-06"
   sodipodi:docname="tiger.svg">
  <defs
     id="defs2">
    <filter
       inkscape:label="Riddled"
       inkscape:menu="Textures"
       inkscape:menu-tooltip="Riddle the surface and add bump to images"
       height="1.3"
       y="-0.15000001"
       width="1.3"
       x="-0.15000001"
       style="color-interpolation-filters:sRGB"
       id="filter1568">
      <feGaussianBlur
         stdDeviation="0.5"
         in="SourceGraphic"
         result="result1"
         id="feGaussianBlur1538" />
      <feTurbulence
         type="fractalNoise"
         baseFrequency="0.04"
         numOctaves="10"
         result="result0"
         id="feTurbulence1540" />
      <feGaussianBlur
         result="result8"
         stdDeviation="1"
         id="feGaussianBlur1542" />
      <feDisplacementMap
         in2="result0"
         in="result1"
         xChannelSelector="R"
         yChannelSelector="B"
         scale="20"
         result="result2"
         id="feDisplacementMap1544" />
      <feComposite
         result="result7"
         operator="in"
         in="result2"
         in2="result8"
         id="feComposite1546" />
      <feComposite
         in2="result7"
         result="fbSourceGraphic"
         k2="0.15"
         in="result2"
         k1="2"
         operator="arithmetic"
         id="feComposite1548"
         k3="0"
         k4="0" />
      <feColorMatrix
         values="1 0 0 -1 0 1 0 1 -1 0 1 0 0 -1 0 -0.8 -1 0 3.7 -2.6 "
         in="fbSourceGraphic"
         result="fbSourceGraphicAlpha"
         type="matrix"
         id="feColorMatrix1550" />
      <feGaussianBlur
         stdDeviation="0.5"
         result="result9"
         id="feGaussianBlur1552" />
      <feSpecularLighting
         surfaceScale="10"
         specularExponent="3"
         result="result11"
         specularConstant="0.69999999"
         id="feSpecularLighting1556">
        <feDistantLight
           azimuth="235"
           elevation="55"
           id="feDistantLight1554" />
      </feSpecularLighting>
      <feDiffuseLighting
         in="result9"
         lighting-color="#ffffff"
         result="result6"
         diffuseConstant="0.40000001"
         surfaceScale="50"
         id="feDiffuseLighting1560">
        <feDistantLight
           elevation="10"
           azimuth="235"
           id="feDistantLight1558" />
      </feDiffuseLighting>
      <feBlend
         result="result10"
         mode="screen"
         in2="result11"
         id="feBlend1562" />
      <feComposite
         in2="fbSourceGraphic"
         in="result10"
         result="result2"
         operator="in"
         id="feComposite1564" />
      <feComposite
         k3="0.9"
         k2="1"
         operator="arithmetic"
         in2="fbSourceGraphic"
         id="feComposite1566"
         k1="0"
         k4="0" />
    </filter>
  </defs>
  <sodipodi:namedview
     id="base"
     pagecolor="#ffffff"
     bordercolor="#666666"
     borderopacity="1.0"
     inkscape:pageopacity="0.0"
     inkscape:pageshadow="2"
     inkscape:zoom="0.7"
     inkscape:cx="310.27979"
     inkscape:cy="85.425614"
     inkscape:document-units="mm"
     inkscape:current-layer="layer1"
     showgrid="false"
     showguides="false"
     inkscape:window-width="1440"
     inkscape:window-height="855"
     inkscape:window-x="0"
     inkscape:window-y="1"
     inkscape:window-maximized="1"
     fit-margin-top="0"
     fit-margin-left="0"
     fit-margin-right="0"
     fit-margin-bottom="0" />
  <metadata
     id="metadata5">
    <rdf:RDF>
      <cc:Work
         rdf:about="">
        <dc:format>image/svg+xml</dc:format>
        <dc:type
           rdf:resource="http://purl.org/dc/dcmitype/StillImage" />
        <dc:title></dc:title>
      </cc:Work>
    </rdf:RDF>
  </metadata>
  <g
     inkscape:label="Body"
     inkscape:groupmode="layer"
     id="layer1"
     transform="translate(-0.43272791,-0.37505562)">
    <g
       id="g1879"
       transform="translate(5.795526,-3.0671559)">
      <path
         style="opacity:1;fill:#ff9955;fill-opacity:1;stroke:#552200;stroke-width:8.73836231;stroke-linecap:round;stroke-linejoin:round;stroke-miterlimit:4;stroke-dasharray:none;stroke-dashoffset:0;stroke-opacity:1"
         d="m 64.982491,81.606541 c 0.09927,4.487421 -0.141869,10.121558 -1.505742,12.910533 -2.182842,4.463656 -5.553443,1.046817 -8.335077,1.309268 -2.851004,0.269 -6.165123,4.286108 -8.558067,0.27158 -1.443785,-2.422163 -1.94584,-7.814324 -2.044093,-12.255668 -0.09927,-4.487421 0.26313,-9.765779 1.505749,-12.910474 2.060747,-5.215159 5.452865,-5.725151 8.335073,-6.002546 2.907122,-0.279782 6.297033,-0.309194 8.558066,4.421642 1.33783,2.799192 1.945835,7.814321 2.044091,12.255665 z"
         id="path1752"
         inkscape:connector-curvature="0"
         sodipodi:nodetypes="aaaaaaaaa" />
      <path
         style="fill:#552200;fill-opacity:1;stroke:#552200;stroke-width:0.12935625px;stroke-linecap:butt;stroke-linejoin:miter;stroke-opacity:1"
         d="m 64.183563,89.425622 c 0,0 -3.35026,-1.34197 -5.10514,-1.52119 -1.90344,-0.1944 -3.94163,0.5374 -5.71672,0.50063 -0.82847,-0.0172 -2.29662,-0.33649 -2.29662,-0.33649 0,0 5.87087,-3.31588 8.02595,-3.61198 1.44925,-0.19912 2.3114,0.51985 3.1153,1.25939 0.94592,0.87063 1.97723,3.70964 1.97723,3.70964 z"
         id="path1820"
         inkscape:connector-curvature="0"
         sodipodi:nodetypes="caacaacc" />
      <path
         sodipodi:nodetypes="caacaacc"
         inkscape:connector-curvature="0"
         id="path1871"
         d="m 47.026918,83.566991 c 0,0 3.35026,-1.34197 5.10514,-1.52119 1.90344,-0.1944 3.94163,0.5374 5.71672,0.50063 0.82847,-0.0172 2.29662,-0.33649 2.29662,-0.33649 0,0 -5.87087,-3.31588 -8.02595,-3.61198 -1.44925,-0.19912 -2.3114,0.51985 -3.1153,1.25939 -0.94592,0.87063 -1.97723,3.70964 -1.97723,3.70964 z"
         style="fill:#552200;fill-opacity:1;stroke:#552200;stroke-width:0.12935625px;stroke-linecap:butt;stroke-linejoin:miter;stroke-opacity:1" />
      <path
         style="fill:#552200;fill-opacity:1;stroke:#552200;stroke-width:0.12935625px;stroke-linecap:butt;stroke-linejoin:miter;stroke-opacity:1"
         d="m 65.940924,77.555285 c 0,0 -3.35026,-1.34197 -5.10514,-1.52119 -1.90344,-0.1944 -3.94163,0.5374 -5.71672,0.50063 -0.82847,-0.0172 -2.29662,-0.33649 -2.29662,-0.33649 0,0 5.87087,-3.31588 8.02595,-3.61198 1.44925,-0.19912 2.3114,0.51985 3.1153,1.25939 0.94592,0.87063 1.97723,3.70964 1.97723,3.70964 z"
         id="path1873"
         inkscape:connector-curvature="0"
         sodipodi:nodetypes="caacaacc" />
    </g>
    <path
       style="opacity:1;fill:#ff9955;fill-opacity:1;stroke:#552200;stroke-width:8;stroke-linecap:round;stroke-linejoin:round;stroke-miterlimit:4;stroke-dasharray:none;stroke-dashoffset:0;stroke-opacity:1"
       d="m 153.70894,45.809355 c 0,9.85289 -6.4619,18.77301 -16.90938,25.22991 -10.44748,6.4569 -24.88054,10.45057 -40.822846,10.45057 -15.94232,0 -30.37537,-3.99367 -40.822851,-10.45057 -10.447479,-6.4569 -16.90938,-15.37702 -16.90938,-25.22991 0,-9.85289 6.461899,-18.77301 16.909378,-25.22991 10.447483,-6.4569 25.147803,-2.96703 41.090123,-2.96703 15.942316,0 30.108096,-3.48987 40.555576,2.96703 10.44748,6.4569 16.90938,15.37702 16.90938,25.22991 z"
       id="path978"
       inkscape:connector-curvature="0"
       sodipodi:nodetypes="sssssssss" />
    <path
       style="fill:#552200;fill-opacity:1;stroke:#552200;stroke-width:0.26458332px;stroke-linecap:butt;stroke-linejoin:miter;stroke-opacity:1"
       d="m 70.851384,20.285115 c 0,0 5.19924,12.10056 4.81085,18.4416 -0.33983,5.54827 -4.35692,10.23916 -6.1472,15.50163 -0.83555,2.4561 -2.13816,7.48355 -2.13816,7.48355 0,0 8.03996,-9.37413 10.42351,-14.9671 1.60288,-3.76113 2.04025,-7.95503 2.40543,-12.02713 0.42978,-4.79244 -0.26727,-14.43255 -0.26727,-14.43255 z"
       id="path1013"
       inkscape:connector-curvature="0"
       sodipodi:nodetypes="caacaacc" />
    <path
       sodipodi:nodetypes="caacaacc"
       inkscape:connector-curvature="0"
       id="path1015"
       d="m 87.956634,20.017845 c 0,0 5.19924,12.10056 4.81085,18.4416 -0.33983,5.54827 -4.35692,10.23916 -6.1472,15.50163 -0.83555,2.4561 -2.13816,7.48355 -2.13816,7.48355 0,0 8.03996,-9.37413 10.42351,-14.9671 1.60288,-3.76113 2.04025,-7.95503 2.40543,-12.02713 0.42978,-4.79244 -0.26727,-14.43255 -0.26727,-14.43255 z"
       style="fill:#552200;fill-opacity:1;stroke:#552200;stroke-width:0.26458332px;stroke-linecap:butt;stroke-linejoin:miter;stroke-opacity:1" />
    <path
       style="fill:#552200;fill-opacity:1;stroke:#552200;stroke-width:0.26458332px;stroke-linecap:butt;stroke-linejoin:miter;stroke-opacity:1"
       d="m 108.00184,20.552385 c 0,0 5.19924,12.10056 4.81085,18.4416 -0.33983,5.54827 -4.35692,10.23916 -6.1472,15.50163 -0.83555,2.4561 -2.13816,7.48355 -2.13816,7.48355 0,0 8.03996,-9.37413 10.42351,-14.9671 1.60288,-3.76113 2.04025,-7.95503 2.40543,-12.02713 0.42978,-4.79244 -0.26727,-14.43255 -0.26727,-14.43255 z"
       id="path1017"
       inkscape:connector-curvature="0"
       sodipodi:nodetypes="caacaacc" />
    <path
       sodipodi:nodetypes="caacaacc"
       inkscape:connector-curvature="0"
       id="path1019"
       d="m 128.31432,19.750575 c 0,0 5.19924,12.10056 4.81085,18.4416 -0.33983,5.54827 -4.35692,10.23916 -6.1472,15.50163 -0.83555,2.4561 -2.13816,7.48355 -2.13816,7.48355 0,0 8.03996,-9.37413 10.42351,-14.9671 1.60288,-3.76113 2.04025,-7.95503 2.40543,-12.02713 0.42978,-4.79244 -0.26727,-14.43255 -0.26727,-14.43255 z"
       style="fill:#552200;fill-opacity:1;stroke:#552200;stroke-width:0.26458332px;stroke-linecap:butt;stroke-linejoin:miter;stroke-opacity:1" />
    <path
       style="fill:#552200;fill-opacity:1;stroke:#552200;stroke-width:0.26458332px;stroke-linecap:butt;stroke-linejoin:miter;stroke-opacity:1"
       d="m 76.003714,76.043015 c 0,0 11.94047,-5.55705 15.87668,-10.54362 3.4441,-4.36314 3.57514,-10.53763 5.74735,-15.65428 1.01382,-2.38804 3.392996,-7.00449 3.392996,-7.00449 0,0 -0.25267,12.34713 -2.202796,18.10556 -1.31141,3.87241 -3.78021,7.29076 -6.22166,10.5702 -2.87333,3.85955 -9.81738,10.58248 -9.81738,10.58248 z"
       id="path1021"
       inkscape:connector-curvature="0"
       sodipodi:nodetypes="caacaacc" />
    <path
       sodipodi:nodetypes="caacaacc"
       inkscape:connector-curvature="0"
       id="path1023"
       d="m 59.165734,71.499435 c 0,0 11.94047,-5.55705 15.87668,-10.54362 3.4441,-4.36314 3.57514,-10.53763 5.74735,-15.65428 1.01382,-2.38804 3.393,-7.00449 3.393,-7.00449 0,0 -0.25267,12.34713 -2.2028,18.10556 -1.31141,3.87241 -3.78021,7.29076 -6.22166,10.5702 -2.87333,3.85955 -9.81738,10.58248 -9.81738,10.58248 z"
       style="fill:#552200;fill-opacity:1;stroke:#552200;stroke-width:0.26458332px;stroke-linecap:butt;stroke-linejoin:miter;stroke-opacity:1" />
    <path
       style="fill:#552200;fill-opacity:1;stroke:#552200;stroke-width:0.26458332px;stroke-linecap:butt;stroke-linejoin:miter;stroke-opacity:1"
       d="m 98.011534,78.642995 c 0,0 13.051256,-7.91285 17.388576,-13.94541 3.24494,-4.51321 3.57514,-10.53763 5.74735,-15.65428 1.01382,-2.38804 3.393,-7.00449 3.393,-7.00449 0,0 -0.25267,12.34713 -2.2028,18.10556 -1.31141,3.87241 -3.78021,7.29076 -6.22166,10.5702 -2.87333,3.85955 -9.81738,10.58248 -9.81738,10.58248 z"
       id="path1025"
       inkscape:connector-curvature="0"
       sodipodi:nodetypes="caacaacc" />
    <g
       id="g1869"
       transform="translate(5.6065379,-3.0671559)">
      <path
         sodipodi:nodetypes="aaaaaaaaa"
         inkscape:connector-curvature="0"
         id="path1063"
         d="m 70.390108,103.31025 c 0.14611,2.55549 -0.2088,5.76401 -2.21612,7.35227 -3.21266,2.54196 -8.17344,0.59614 -12.26739,0.7456 -4.196048,0.15319 -9.073697,2.44084 -12.595582,0.15466 -2.124933,-1.37937 -2.863846,-4.45009 -3.008453,-6.97934 -0.146107,-2.55549 0.387269,-5.561407 2.216129,-7.352244 3.032964,-2.96992 8.025412,-3.26035 12.267386,-3.41832 4.27864,-0.15933 9.26784,-0.17608 12.59558,2.51803 1.96899,1.59408 2.86384,4.450094 3.00845,6.979344 z"
         style="opacity:1;fill:#ff9955;fill-opacity:1;stroke:#552200;stroke-width:8;stroke-linecap:round;stroke-linejoin:round;stroke-miterlimit:4;stroke-dasharray:none;stroke-dashoffset:0;stroke-opacity:1" />
      <circle
         style="opacity:1;fill:#552200;fill-opacity:1;stroke:#552200;stroke-width:0;stroke-linecap:round;stroke-linejoin:round;stroke-miterlimit:4;stroke-dasharray:none;stroke-dashoffset:0;stroke-opacity:1"
         id="circle1065"
         cx="48.611706"
         cy="105.0626"
         r="2.9399648" />
      <circle
         r="2.9399648"
         cy="104.26078"
         cx="54.764278"
         id="circle1067"
         style="opacity:1;fill:#552200;fill-opacity:1;stroke:#552200;stroke-width:0;stroke-linecap:round;stroke-linejoin:round;stroke-miterlimit:4;stroke-dasharray:none;stroke-dashoffset:0;stroke-opacity:1" />
      <circle
         style="opacity:1;fill:#552200;fill-opacity:1;stroke:#552200;stroke-width:0;stroke-linecap:round;stroke-linejoin:round;stroke-miterlimit:4;stroke-dasharray:none;stroke-dashoffset:0;stroke-opacity:1"
         id="circle1069"
         cx="61.440651"
         cy="104.52805"
         r="2.9399648" />
    </g>
    <path
       style="fill:#552200;fill-opacity:1;stroke:#552200;stroke-width:0.26458332px;stroke-linecap:butt;stroke-linejoin:miter;stroke-opacity:1"
       d="m 41.778829,65.451816 c 0,0 11.94047,-5.55705 15.87668,-10.54362 3.4441,-4.36314 3.57514,-10.53763 5.74735,-15.65428 1.01382,-2.38804 3.393,-7.00449 3.393,-7.00449 0,0 -0.25267,12.34713 -2.2028,18.10556 -1.31141,3.87241 -3.78021,7.29076 -6.22166,10.5702 -2.87333,3.85955 -9.81738,10.58248 -9.81738,10.58248 z"
       id="path1802"
       inkscape:connector-curvature="0"
       sodipodi:nodetypes="caacaacc" />
    <path
       style="fill:#552200;fill-opacity:1;stroke:#552200;stroke-width:0.24746163px;stroke-linecap:butt;stroke-linejoin:miter;stroke-opacity:1"
       d="m 50.451224,19.64704 c 0,0 5.19924,10.585132 4.81085,16.132044 -0.33983,4.853426 -4.35692,8.956847 -6.1472,13.560265 -0.83555,2.148508 -2.13816,6.546339 -2.13816,6.546339 0,0 8.03996,-8.20015 10.42351,-13.092677 1.60288,-3.290101 2.04025,-6.958773 2.40543,-10.520899 0.42978,-4.192253 -0.26727,-12.625072 -0.26727,-12.625072 z"
       id="path1804"
       inkscape:connector-curvature="0"
       sodipodi:nodetypes="caacaacc" />
    <path
       sodipodi:nodetypes="caacaacc"
       inkscape:connector-curvature="0"
       id="path1806"
       d="m 119.99955,74.054941 c 0,0 11.5482,-6.332029 15.14716,-11.567212 3.14902,-4.58067 2.87278,-10.750369 4.70299,-15.999075 0.8542,-2.449674 2.92392,-7.212907 2.92392,-7.212907 0,0 0.56175,12.336931 -1.00417,18.211404 -1.05331,3.95043 -3.29141,7.524079 -5.51139,10.957317 -2.61267,4.040554 -9.09847,11.206585 -9.09847,11.206585 z"
       style="fill:#552200;fill-opacity:1;stroke:#552200;stroke-width:0.26458332px;stroke-linecap:butt;stroke-linejoin:miter;stroke-opacity:1" />
  </g>
  <g
     inkscape:groupmode="layer"
     id="layer2"
     inkscape:label="Head"
     style="display:none">
    <g
       id="g1046"
       transform="translate(7.0757722,-88.66492)">
      <circle
         style="opacity:1;fill:#ff9955;fill-opacity:1;stroke:#552200;stroke-width:8;stroke-linecap:round;stroke-linejoin:round;stroke-miterlimit:4;stroke-dasharray:none;stroke-dashoffset:0;stroke-opacity:1"
         id="circle1042"
         cx="-59.523037"
         cy="98.400002"
         r="8.7387686"
         transform="matrix(-0.99803282,-0.06269364,-0.06269364,0.99803282,0,0)" />
      <circle
         style="opacity:1;fill:#552200;fill-opacity:1;stroke:#552200;stroke-width:0;stroke-linecap:round;stroke-linejoin:round;stroke-miterlimit:4;stroke-dasharray:none;stroke-dashoffset:0;stroke-opacity:1"
         id="circle1044"
         cx="53.453899"
         cy="102.16051"
         r="2.9399648" />
    </g>
    <g
       id="g1040"
       transform="translate(-40.498204,-89.199461)">
      <circle
         transform="matrix(-0.99803282,-0.06269364,-0.06269364,0.99803282,0,0)"
         r="8.7387686"
         cy="98.400002"
         cx="-59.523037"
         id="circle997"
         style="opacity:1;fill:#ff9955;fill-opacity:1;stroke:#552200;stroke-width:8;stroke-linecap:round;stroke-linejoin:round;stroke-miterlimit:4;stroke-dasharray:none;stroke-dashoffset:0;stroke-opacity:1" />
      <circle
         r="2.9399648"
         cy="102.16051"
         cx="53.453899"
         id="circle1034"
         style="opacity:1;fill:#552200;fill-opacity:1;stroke:#552200;stroke-width:0;stroke-linecap:round;stroke-linejoin:round;stroke-miterlimit:4;stroke-dasharray:none;stroke-dashoffset:0;stroke-opacity:1" />
    </g>
    <circle
       transform="translate(-0.43272792,-0.37505563)"
       style="opacity:1;fill:#ff9955;fill-opacity:1;stroke:#552200;stroke-width:8.01612568;stroke-linecap:round;stroke-linejoin:round;stroke-miterlimit:4;stroke-dasharray:none;stroke-dashoffset:0;stroke-opacity:1"
       id="path983"
       cx="38.444939"
       cy="36.388111"
       r="29.206568" />
    <circle
       style="opacity:1;fill:#ff9955;fill-opacity:1;stroke:#552200;stroke-width:4;stroke-linecap:round;stroke-linejoin:round;stroke-miterlimit:4;stroke-dasharray:none;stroke-dashoffset:0;stroke-opacity:1"
       id="circle1095"
       cx="-41.406612"
       cy="45.845257"
       r="6.1762595"
       transform="matrix(-0.99803281,-0.06269364,-0.06269364,0.99803281,-0.43272792,-0.37505563)" />
    <circle
       style="opacity:1;fill:#ff9955;fill-opacity:1;stroke:#552200;stroke-width:4;stroke-linecap:round;stroke-linejoin:round;stroke-miterlimit:4;stroke-dasharray:none;stroke-dashoffset:0;stroke-opacity:1"
       id="circle1073"
       cx="-34.12756"
       cy="40.48962"
       r="6.1762595"
       transform="matrix(-0.99803281,-0.06269364,-0.06269364,0.99803281,-0.43272792,-0.37505563)" />
    <circle
       transform="matrix(-0.99803281,-0.06269364,-0.06269364,0.99803281,-0.43272792,-0.37505563)"
       r="6.1762595"
       cy="40.167973"
       cx="-47.05212"
       id="circle1081"
       style="opacity:1;fill:#ff9955;fill-opacity:1;stroke:#552200;stroke-width:4;stroke-linecap:round;stroke-linejoin:round;stroke-miterlimit:4;stroke-dasharray:none;stroke-dashoffset:0;stroke-opacity:1" />
    <g
       id="g1194"
       transform="translate(-40.498204,-89.199461)">
      <path
         inkscape:transform-center-y="-0.39497681"
         inkscape:transform-center-x="3.3125486"
         sodipodi:nodetypes="sacas"
         inkscape:connector-curvature="0"
         id="circle1007"
         d="m 72.897707,117.62536 c -0.3969,1.57445 -3.088861,-1.40664 -4.72506,-1.34325 -1.911934,0.0741 -5.383328,1.99214 -5.383328,1.99214 0,0 3.506893,-3.72945 5.793444,-3.67643 1.756569,0.0407 4.513392,2.24033 4.314944,3.02754 z"
         style="opacity:1;fill:#552200;fill-opacity:1;stroke:#552200;stroke-width:0;stroke-linecap:round;stroke-linejoin:round;stroke-miterlimit:4;stroke-dasharray:none;stroke-dashoffset:0;stroke-opacity:1" />
      <circle
         r="2.9399648"
         cy="118.79804"
         cx="70.291878"
         id="circle1032"
         style="opacity:1;fill:#552200;fill-opacity:1;stroke:#552200;stroke-width:0;stroke-linecap:round;stroke-linejoin:round;stroke-miterlimit:4;stroke-dasharray:none;stroke-dashoffset:0;stroke-opacity:1" />
      <path
         style="opacity:1;fill:#552200;fill-opacity:1;stroke:#552200;stroke-width:0;stroke-linecap:round;stroke-linejoin:round;stroke-miterlimit:4;stroke-dasharray:none;stroke-dashoffset:0;stroke-opacity:1"
         d="m 73.956041,113.392 c -0.493723,1.95853 -3.626031,-1.34347 -5.495711,-1.20075 -2.965032,0.22634 -8.325373,3.205 -8.325373,3.205 0,0 5.493033,-6.08485 8.453513,-5.77036 2.96048,0.3145 5.61443,2.78686 5.367571,3.76611 z"
         id="path1083"
         inkscape:connector-curvature="0"
         sodipodi:nodetypes="sacss"
         inkscape:transform-center-x="4.1206427"
         inkscape:transform-center-y="-0.49133213" />
    </g>
    <g
       id="g1163"
       transform="translate(-40.498204,-89.199461)">
      <path
         style="fill:#552200;fill-opacity:1;stroke:#552200;stroke-width:0.14722961px;stroke-linecap:butt;stroke-linejoin:miter;stroke-opacity:1"
         d="m 64.978046,100.35636 c 0,0 4.00666,1.4642 5.741305,2.6654 1.881498,1.30289 3.242788,3.47739 4.896954,4.81226 0.772036,0.623 2.341007,1.48749 2.341007,1.48749 0,0 -3.081383,-7.26516 -4.852801,-9.16831 -1.191232,-1.279811 -2.482021,-1.346811 -3.733673,-1.351931 -1.473066,-0.006 -4.392792,1.555091 -4.392792,1.555091 z"
         id="path1099"
         inkscape:connector-curvature="0"
         sodipodi:nodetypes="caacaacc" />
      <path
         sodipodi:nodetypes="caacaacc"
         inkscape:connector-curvature="0"
         id="path1105"
         d="m 49.324905,126.49281 c 0,0 2.965476,-3.06645 4.767731,-4.16361 1.954831,-1.19005 4.494812,-1.55068 6.38652,-2.52 0.882893,-0.45241 2.310163,-1.53495 2.310163,-1.53495 0,0 -7.890441,-0.13542 -10.34906,0.71021 -1.653368,0.56866 -2.238911,1.72094 -2.752009,2.8626 -0.603562,1.34376 -0.363345,4.64575 -0.363345,4.64575 z"
         style="fill:#552200;fill-opacity:1;stroke:#552200;stroke-width:0.14722961px;stroke-linecap:butt;stroke-linejoin:miter;stroke-opacity:1" />
      <path
         style="fill:#552200;fill-opacity:1;stroke:#552200;stroke-width:0.11367041px;stroke-linecap:butt;stroke-linejoin:miter;stroke-opacity:1"
         d="m 50.885089,131.71034 c 0,0 2.274576,-2.38306 3.656938,-3.2357 1.499392,-0.92483 3.447603,-1.20509 4.898578,-1.95839 0.677196,-0.35159 1.771938,-1.19287 1.771938,-1.19287 0,0 -6.052114,-0.10524 -7.937919,0.55193 -1.268164,0.44193 -1.717286,1.33741 -2.110842,2.22464 -0.462944,1.04429 -0.278693,3.61039 -0.278693,3.61039 z"
         id="path1107"
         inkscape:connector-curvature="0"
         sodipodi:nodetypes="caacaacc" />
      <path
         inkscape:transform-center-y="-1.0442664"
         inkscape:transform-center-x="-3.7976281"
         sodipodi:nodetypes="caacaacc"
         inkscape:connector-curvature="0"
         id="path1109"
         d="m 55.420867,142.66105 c 0,0 1.552516,-3.19574 2.669917,-4.51843 1.211997,-1.43467 3.05574,-2.34046 4.269954,-3.58146 0.566692,-0.5792 1.403134,-1.79939 1.403134,-1.79939 0,0 -6.012432,1.7989 -7.684477,3.07703 -1.124416,0.8595 -1.306928,1.93248 -1.436929,2.97935 -0.152736,1.2321 0.778401,3.8429 0.778401,3.8429 z"
         style="fill:#552200;fill-opacity:1;stroke:#552200;stroke-width:0.12029757px;stroke-linecap:butt;stroke-linejoin:miter;stroke-opacity:1" />
      <path
         style="fill:#552200;fill-opacity:1;stroke:#552200;stroke-width:0.11836253px;stroke-linecap:butt;stroke-linejoin:miter;stroke-opacity:1"
         d="m 59.15945,147.62501 c 0,0 0.805513,-3.32271 1.608907,-4.813 0.871407,-1.61645 2.489148,-2.89832 3.407064,-4.33674 0.428402,-0.67133 0.97715,-1.99903 0.97715,-1.99903 0,0 -5.539688,3.11533 -6.902282,4.69891 -0.916319,1.06491 -0.851469,2.09845 -0.740616,3.09519 0.130733,1.17304 1.649777,3.35467 1.649777,3.35467 z"
         id="path1111"
         inkscape:connector-curvature="0"
         sodipodi:nodetypes="caacaacc"
         inkscape:transform-center-x="-3.0577553"
         inkscape:transform-center-y="-1.9792833" />
      <path
         inkscape:transform-center-y="-3.2374959"
         inkscape:transform-center-x="-1.3487637"
         sodipodi:nodetypes="caacaacc"
         inkscape:connector-curvature="0"
         id="path1113"
         d="m 65.922266,152.28484 c 0,0 -0.329638,-3.49184 -0.07941,-5.20699 0.271405,-1.86036 1.321023,-3.64803 1.690826,-5.35152 0.172589,-0.79505 0.24515,-2.2668 0.24515,-2.2668 0,0 -3.998791,4.88662 -4.722892,6.88069 -0.486948,1.34096 -0.100425,2.32079 0.315833,3.24944 0.490133,1.09281 2.550497,2.69518 2.550497,2.69518 z"
         style="fill:#552200;fill-opacity:1;stroke:#552200;stroke-width:0.11715218px;stroke-linecap:butt;stroke-linejoin:miter;stroke-opacity:1" />
      <path
         style="fill:#552200;fill-opacity:1;stroke:#552200;stroke-width:0.12935625px;stroke-linecap:butt;stroke-linejoin:miter;stroke-opacity:1"
         d="m 47.01648,116.7533 c 0,0 3.35026,-1.34197 5.105139,-1.52119 1.903446,-0.1944 3.941628,0.5374 5.716721,0.50063 0.828471,-0.0172 2.296617,-0.33649 2.296617,-0.33649 0,0 -5.870864,-3.31588 -8.025951,-3.61198 -1.449248,-0.19912 -2.311397,0.51985 -3.115291,1.25939 -0.945927,0.87063 -1.977235,3.70964 -1.977235,3.70964 z"
         id="path1115"
         inkscape:connector-curvature="0"
         sodipodi:nodetypes="caacaacc" />
      <path
         sodipodi:nodetypes="caacaacc"
         inkscape:connector-curvature="0"
         id="path1117"
         d="m 50.198003,108.99873 c 0,0 3.37448,-0.56676 5.045731,-0.30772 1.812739,0.28098 3.580928,1.57958 5.244851,1.99502 0.776591,0.19387 2.205922,0.23081 2.205922,0.23081 0,0 -4.871004,-5.02286 -6.828459,-5.88891 -1.316345,-0.58241 -2.25344,-0.04 -3.139936,0.53925 -1.043197,0.68199 -2.528109,3.43155 -2.528109,3.43155 z"
         style="fill:#552200;fill-opacity:1;stroke:#552200;stroke-width:0.13179471px;stroke-linecap:butt;stroke-linejoin:miter;stroke-opacity:1" />
      <path
         style="fill:#552200;fill-opacity:1;stroke:#552200;stroke-width:0.13229984px;stroke-linecap:butt;stroke-linejoin:miter;stroke-opacity:1"
         d="m 58.913662,105.34071 c 0,0 3.627323,-0.5313 5.423798,-0.28847 1.948563,0.2634 3.849239,1.48077 5.637836,1.87021 0.83478,0.18174 2.371207,0.21637 2.371207,0.21637 0,0 -5.235978,-4.70863 -7.340102,-5.5205 -1.414976,-0.54597 -2.422284,-0.0375 -3.375204,0.50552 -1.121362,0.63932 -2.717535,3.21687 -2.717535,3.21687 z"
         id="path1119"
         inkscape:connector-curvature="0"
         sodipodi:nodetypes="caacaacc" />
      <path
         style="fill:#552200;fill-opacity:1;stroke:#552200;stroke-width:0.12904073px;stroke-linecap:butt;stroke-linejoin:miter;stroke-opacity:1"
         d="m 74.079462,153.24073 c 0,0 -2.35723,-2.76623 -3.056128,-4.32708 -0.758073,-1.69302 -0.608112,-3.70676 -1.167211,-5.3165 -0.260944,-0.7513 -1.018957,-2.02094 -1.018957,-2.02094 0,0 -1.667848,6.05862 -1.337679,8.08578 0.221985,1.36322 1.210889,1.99521 2.203704,2.56973 1.168644,0.67594 4.376271,1.00901 4.376271,1.00901 z"
         id="path1121"
         inkscape:connector-curvature="0"
         sodipodi:nodetypes="caacaacc"
         inkscape:transform-center-x="-0.68862831"
         inkscape:transform-center-y="-4.1347002" />
      <path
         inkscape:transform-center-y="-4.1347002"
         inkscape:transform-center-x="-0.68862831"
         sodipodi:nodetypes="caacaacc"
         inkscape:connector-curvature="0"
         id="path1125"
         d="m 79.681463,156.23092 c 0,0 -2.35723,-2.76623 -3.056128,-4.32708 -0.758073,-1.69302 -0.608112,-3.70676 -1.167211,-5.3165 -0.260944,-0.7513 -1.018957,-2.02094 -1.018957,-2.02094 0,0 -1.667848,6.05862 -1.337679,8.08578 0.221985,1.36322 1.210889,1.99521 2.203704,2.56973 1.168644,0.67594 4.376271,1.00901 4.376271,1.00901 z"
         style="fill:#552200;fill-opacity:1;stroke:#552200;stroke-width:0.12904073px;stroke-linecap:butt;stroke-linejoin:miter;stroke-opacity:1" />
      <path
         style="fill:#552200;fill-opacity:1;stroke:#552200;stroke-width:0.12029757px;stroke-linecap:butt;stroke-linejoin:miter;stroke-opacity:1"
         d="m 53.927872,136.81017 c 0,0 1.552516,-3.19574 2.669917,-4.51843 1.211997,-1.43467 3.05574,-2.34046 4.269954,-3.58146 0.566692,-0.5792 1.403134,-1.79939 1.403134,-1.79939 0,0 -6.012432,1.7989 -7.684477,3.07703 -1.124416,0.8595 -1.306928,1.93248 -1.436929,2.97935 -0.152736,1.2321 0.778401,3.8429 0.778401,3.8429 z"
         id="path1127"
         inkscape:connector-curvature="0"
         sodipodi:nodetypes="caacaacc"
         inkscape:transform-center-x="-3.7976281"
         inkscape:transform-center-y="-1.0442664" />
    </g>
    <g
       id="g1136"
       transform="matrix(1.3965544,0,0,1.3965544,-3.0553909,-155.83606)">
      <circle
         r="2.9399648"
         cy="137.3952"
         cx="27.663462"
         id="circle1097"
         style="opacity:1;fill:#552200;fill-opacity:1;stroke:#552200;stroke-width:0;stroke-linecap:round;stroke-linejoin:round;stroke-miterlimit:4;stroke-dasharray:none;stroke-dashoffset:0;stroke-opacity:1" />
      <circle
         style="opacity:1;fill:#552200;fill-opacity:1;stroke:#552200;stroke-width:0;stroke-linecap:round;stroke-linejoin:round;stroke-miterlimit:4;stroke-dasharray:none;stroke-dashoffset:0;stroke-opacity:1"
         id="circle1129"
         cx="30.838465"
         cy="137.3952"
         r="2.9399648" />
      <circle
         r="2.9399648"
         cy="138.98268"
         cx="29.250963"
         id="circle1131"
         style="opacity:1;fill:#552200;fill-opacity:1;stroke:#552200;stroke-width:0;stroke-linecap:round;stroke-linejoin:round;stroke-miterlimit:4;stroke-dasharray:none;stroke-dashoffset:0;stroke-opacity:1" />
    </g>
    <g
       id="g1189"
       transform="matrix(-1,0,0,1,117.00392,-87.611961)">
      <path
         sodipodi:nodetypes="caacaacc"
         inkscape:connector-curvature="0"
         id="path1165"
         d="m 64.978046,100.35636 c 0,0 4.00666,1.4642 5.741305,2.6654 1.881498,1.30289 3.242788,3.47739 4.896954,4.81226 0.772036,0.623 2.341007,1.48749 2.341007,1.48749 0,0 -3.081383,-7.26516 -4.852801,-9.16831 -1.191232,-1.279811 -2.482021,-1.346811 -3.733673,-1.351931 -1.473066,-0.006 -4.392792,1.555091 -4.392792,1.555091 z"
         style="fill:#552200;fill-opacity:1;stroke:#552200;stroke-width:0.14722961px;stroke-linecap:butt;stroke-linejoin:miter;stroke-opacity:1" />
      <path
         style="fill:#552200;fill-opacity:1;stroke:#552200;stroke-width:0.14722961px;stroke-linecap:butt;stroke-linejoin:miter;stroke-opacity:1"
         d="m 49.324905,126.49281 c 0,0 2.965476,-3.06645 4.767731,-4.16361 1.954831,-1.19005 4.494812,-1.55068 6.38652,-2.52 0.882893,-0.45241 2.310163,-1.53495 2.310163,-1.53495 0,0 -7.890441,-0.13542 -10.34906,0.71021 -1.653368,0.56866 -2.238911,1.72094 -2.752009,2.8626 -0.603562,1.34376 -0.363345,4.64575 -0.363345,4.64575 z"
         id="path1167"
         inkscape:connector-curvature="0"
         sodipodi:nodetypes="caacaacc" />
      <path
         sodipodi:nodetypes="caacaacc"
         inkscape:connector-curvature="0"
         id="path1169"
         d="m 50.885089,131.71034 c 0,0 2.274576,-2.38306 3.656938,-3.2357 1.499392,-0.92483 3.447603,-1.20509 4.898578,-1.95839 0.677196,-0.35159 1.771938,-1.19287 1.771938,-1.19287 0,0 -6.052114,-0.10524 -7.937919,0.55193 -1.268164,0.44193 -1.717286,1.33741 -2.110842,2.22464 -0.462944,1.04429 -0.278693,3.61039 -0.278693,3.61039 z"
         style="fill:#552200;fill-opacity:1;stroke:#552200;stroke-width:0.11367041px;stroke-linecap:butt;stroke-linejoin:miter;stroke-opacity:1" />
      <path
         style="fill:#552200;fill-opacity:1;stroke:#552200;stroke-width:0.12029757px;stroke-linecap:butt;stroke-linejoin:miter;stroke-opacity:1"
         d="m 55.420867,142.66105 c 0,0 1.552516,-3.19574 2.669917,-4.51843 1.211997,-1.43467 3.05574,-2.34046 4.269954,-3.58146 0.566692,-0.5792 1.403134,-1.79939 1.403134,-1.79939 0,0 -6.012432,1.7989 -7.684477,3.07703 -1.124416,0.8595 -1.306928,1.93248 -1.436929,2.97935 -0.152736,1.2321 0.778401,3.8429 0.778401,3.8429 z"
         id="path1171"
         inkscape:connector-curvature="0"
         sodipodi:nodetypes="caacaacc"
         inkscape:transform-center-x="-3.7976281"
         inkscape:transform-center-y="-1.0442664" />
      <path
         inkscape:transform-center-y="-1.9792833"
         inkscape:transform-center-x="-3.0577553"
         sodipodi:nodetypes="caacaacc"
         inkscape:connector-curvature="0"
         id="path1173"
         d="m 59.15945,147.62501 c 0,0 0.805513,-3.32271 1.608907,-4.813 0.871407,-1.61645 2.489148,-2.89832 3.407064,-4.33674 0.428402,-0.67133 0.97715,-1.99903 0.97715,-1.99903 0,0 -5.539688,3.11533 -6.902282,4.69891 -0.916319,1.06491 -0.851469,2.09845 -0.740616,3.09519 0.130733,1.17304 1.649777,3.35467 1.649777,3.35467 z"
         style="fill:#552200;fill-opacity:1;stroke:#552200;stroke-width:0.11836253px;stroke-linecap:butt;stroke-linejoin:miter;stroke-opacity:1" />
      <path
         style="fill:#552200;fill-opacity:1;stroke:#552200;stroke-width:0.11715218px;stroke-linecap:butt;stroke-linejoin:miter;stroke-opacity:1"
         d="m 65.922266,152.28484 c 0,0 -0.329638,-3.49184 -0.07941,-5.20699 0.271405,-1.86036 1.321023,-3.64803 1.690826,-5.35152 0.172589,-0.79505 0.24515,-2.2668 0.24515,-2.2668 0,0 -3.998791,4.88662 -4.722892,6.88069 -0.486948,1.34096 -0.100425,2.32079 0.315833,3.24944 0.490133,1.09281 2.550497,2.69518 2.550497,2.69518 z"
         id="path1175"
         inkscape:connector-curvature="0"
         sodipodi:nodetypes="caacaacc"
         inkscape:transform-center-x="-1.3487637"
         inkscape:transform-center-y="-3.2374959" />
      <path
         sodipodi:nodetypes="caacaacc"
         inkscape:connector-curvature="0"
         id="path1177"
         d="m 47.01648,116.7533 c 0,0 3.35026,-1.34197 5.105139,-1.52119 1.903446,-0.1944 3.941628,0.5374 5.716721,0.50063 0.828471,-0.0172 2.296617,-0.33649 2.296617,-0.33649 0,0 -5.870864,-3.31588 -8.025951,-3.61198 -1.449248,-0.19912 -2.311397,0.51985 -3.115291,1.25939 -0.945927,0.87063 -1.977235,3.70964 -1.977235,3.70964 z"
         style="fill:#552200;fill-opacity:1;stroke:#552200;stroke-width:0.12935625px;stroke-linecap:butt;stroke-linejoin:miter;stroke-opacity:1" />
      <path
         style="fill:#552200;fill-opacity:1;stroke:#552200;stroke-width:0.13179471px;stroke-linecap:butt;stroke-linejoin:miter;stroke-opacity:1"
         d="m 50.198003,108.99873 c 0,0 3.37448,-0.56676 5.045731,-0.30772 1.812739,0.28098 3.580928,1.57958 5.244851,1.99502 0.776591,0.19387 2.205922,0.23081 2.205922,0.23081 0,0 -4.871004,-5.02286 -6.828459,-5.88891 -1.316345,-0.58241 -2.25344,-0.04 -3.139936,0.53925 -1.043197,0.68199 -2.528109,3.43155 -2.528109,3.43155 z"
         id="path1179"
         inkscape:connector-curvature="0"
         sodipodi:nodetypes="caacaacc" />
      <path
         sodipodi:nodetypes="caacaacc"
         inkscape:connector-curvature="0"
         id="path1181"
         d="m 58.913662,105.34071 c 0,0 3.627323,-0.5313 5.423798,-0.28847 1.948563,0.2634 3.849239,1.48077 5.637836,1.87021 0.83478,0.18174 2.371207,0.21637 2.371207,0.21637 0,0 -5.235978,-4.70863 -7.340102,-5.5205 -1.414976,-0.54597 -2.422284,-0.0375 -3.375204,0.50552 -1.121362,0.63932 -2.717535,3.21687 -2.717535,3.21687 z"
         style="fill:#552200;fill-opacity:1;stroke:#552200;stroke-width:0.13229984px;stroke-linecap:butt;stroke-linejoin:miter;stroke-opacity:1" />
      <path
         inkscape:transform-center-y="-4.1347002"
         inkscape:transform-center-x="-0.68862831"
         sodipodi:nodetypes="caacaacc"
         inkscape:connector-curvature="0"
         id="path1183"
         d="m 74.079462,153.24073 c 0,0 -2.35723,-2.76623 -3.056128,-4.32708 -0.758073,-1.69302 -0.608112,-3.70676 -1.167211,-5.3165 -0.260944,-0.7513 -1.018957,-2.02094 -1.018957,-2.02094 0,0 -1.667848,6.05862 -1.337679,8.08578 0.221985,1.36322 1.210889,1.99521 2.203704,2.56973 1.168644,0.67594 4.376271,1.00901 4.376271,1.00901 z"
         style="fill:#552200;fill-opacity:1;stroke:#552200;stroke-width:0.12904073px;stroke-linecap:butt;stroke-linejoin:miter;stroke-opacity:1" />
      <path
         style="fill:#552200;fill-opacity:1;stroke:#552200;stroke-width:0.12904073px;stroke-linecap:butt;stroke-linejoin:miter;stroke-opacity:1"
         d="m 79.681463,156.23092 c 0,0 -2.35723,-2.76623 -3.056128,-4.32708 -0.758073,-1.69302 -0.608112,-3.70676 -1.167211,-5.3165 -0.260944,-0.7513 -1.018957,-2.02094 -1.018957,-2.02094 0,0 -1.667848,6.05862 -1.337679,8.08578 0.221985,1.36322 1.210889,1.99521 2.203704,2.56973 1.168644,0.67594 4.376271,1.00901 4.376271,1.00901 z"
         id="path1185"
         inkscape:connector-curvature="0"
         sodipodi:nodetypes="caacaacc"
         inkscape:transform-center-x="-0.68862831"
         inkscape:transform-center-y="-4.1347002" />
      <path
         inkscape:transform-center-y="-1.0442664"
         inkscape:transform-center-x="-3.7976281"
         sodipodi:nodetypes="caacaacc"
         inkscape:connector-curvature="0"
         id="path1187"
         d="m 53.927872,136.81017 c 0,0 1.552516,-3.19574 2.669917,-4.51843 1.211997,-1.43467 3.05574,-2.34046 4.269954,-3.58146 0.566692,-0.5792 1.403134,-1.79939 1.403134,-1.79939 0,0 -6.012432,1.7989 -7.684477,3.07703 -1.124416,0.8595 -1.306928,1.93248 -1.436929,2.97935 -0.152736,1.2321 0.778401,3.8429 0.778401,3.8429 z"
         style="fill:#552200;fill-opacity:1;stroke:#552200;stroke-width:0.12029757px;stroke-linecap:butt;stroke-linejoin:miter;stroke-opacity:1" />
    </g>
    <g
       id="g1202"
       transform="matrix(-1,0,0,1,115.34238,-89.293954)">
      <path
         style="opacity:1;fill:#552200;fill-opacity:1;stroke:#552200;stroke-width:0;stroke-linecap:round;stroke-linejoin:round;stroke-miterlimit:4;stroke-dasharray:none;stroke-dashoffset:0;stroke-opacity:1"
         d="m 72.897707,117.62536 c -0.3969,1.57445 -3.088861,-1.40664 -4.72506,-1.34325 -1.911934,0.0741 -5.383328,1.99214 -5.383328,1.99214 0,0 3.506893,-3.72945 5.793444,-3.67643 1.756569,0.0407 4.513392,2.24033 4.314944,3.02754 z"
         id="path1196"
         inkscape:connector-curvature="0"
         sodipodi:nodetypes="sacas"
         inkscape:transform-center-x="3.3125486"
         inkscape:transform-center-y="-0.39497681" />
      <circle
         style="opacity:1;fill:#552200;fill-opacity:1;stroke:#552200;stroke-width:0;stroke-linecap:round;stroke-linejoin:round;stroke-miterlimit:4;stroke-dasharray:none;stroke-dashoffset:0;stroke-opacity:1"
         id="circle1198"
         cx="70.291878"
         cy="118.79804"
         r="2.9399648" />
      <path
         inkscape:transform-center-y="-0.49133213"
         inkscape:transform-center-x="4.1206427"
         sodipodi:nodetypes="sacss"
         inkscape:connector-curvature="0"
         id="path1200"
         d="m 73.956041,113.392 c -0.493723,1.95853 -3.626031,-1.34347 -5.495711,-1.20075 -2.965032,0.22634 -8.325373,3.205 -8.325373,3.205 0,0 5.493033,-6.08485 8.453513,-5.77036 2.96048,0.3145 5.61443,2.78686 5.367571,3.76611 z"
         style="opacity:1;fill:#552200;fill-opacity:1;stroke:#552200;stroke-width:0;stroke-linecap:round;stroke-linejoin:round;stroke-miterlimit:4;stroke-dasharray:none;stroke-dashoffset:0;stroke-opacity:1" />
    </g>
  </g>
  <g
     inkscape:groupmode="layer"
     id="layer3"
     inkscape:label="Tail"
     style="display:none">
    <g
       id="g1351"
       transform="translate(-40.498204,-89.199461)">
      <path
         sodipodi:nodetypes="casaaaaaacasasaaaasc"
         inkscape:connector-curvature="0"
         id="path981"
         d="m 183.85472,128.46853 c -8.89996,5.79515 2.15314,17.25631 -2.94398,23.11882 -4.1199,4.73854 -10.59643,6.40606 -18.17433,4.95379 -8.40913,-1.61157 -17.76492,-4.53043 -25.65787,-1.21202 -7.0385,2.95918 -12.6269,9.92901 -15.23437,17.10525 -2.84378,7.82661 -4.32177,18.37613 0.76383,24.97003 5.2886,6.8571 16.47692,9.31973 24.91304,7.36497 6.6558,-1.54223 12.30569,-7.62726 15.0968,-13.86328 1.96235,-4.38437 4.32331,-11.94907 0.19758,-14.40912 -4.31466,-2.57271 -10.62641,5.63568 -13.15875,7.34598 -4.45796,4.30768 -10.7383,3.4862 -13.10523,-0.18592 -2.60805,-4.04622 1.53306,-10.96341 5.77673,-13.23607 3.76795,-2.01789 5.34109,-1.14398 8.05197,-1.14279 5.79076,0.003 12.27151,2.07481 17.19776,2.4563 9.31728,0.72154 18.09463,-4.44063 24.34167,-10.73452 3.91586,-3.94523 5.81451,-9.80726 6.61458,-15.30804 0.84012,-5.77614 0.99447,-12.42463 -2.07887,-17.3869 -1.26958,-2.04989 -3.63652,-3.94688 -6.04762,-3.96875 -2.58225,-0.0234 -4.38893,2.72318 -6.55296,4.13227 z"
         style="fill:#ff9955;fill-opacity:1;stroke:#552200;stroke-width:8;stroke-linecap:round;stroke-linejoin:miter;stroke-miterlimit:4;stroke-dasharray:none;stroke-opacity:1" />
      <path
         sodipodi:nodetypes="caacaacc"
         inkscape:connector-curvature="0"
         id="path1204"
         d="m 135.50149,159.03963 c 0,0 4.00666,1.4642 5.74131,2.6654 1.8815,1.30289 3.24279,3.47739 4.89695,4.81226 0.77204,0.623 2.34101,1.48749 2.34101,1.48749 0,0 -3.08138,-7.26516 -4.8528,-9.16831 -1.19123,-1.27981 -2.48202,-1.34681 -3.73368,-1.35193 -1.47306,-0.006 -4.39279,1.55509 -4.39279,1.55509 z"
         style="fill:#552200;fill-opacity:1;stroke:#552200;stroke-width:0.14722961px;stroke-linecap:butt;stroke-linejoin:miter;stroke-opacity:1" />
      <path
         style="fill:#552200;fill-opacity:1;stroke:#552200;stroke-width:0.14722961px;stroke-linecap:butt;stroke-linejoin:miter;stroke-opacity:1"
         d="m 121.43586,187.29276 c 0,0 2.96548,-3.06645 4.76773,-4.16361 1.95483,-1.19005 4.49481,-1.55068 6.38652,-2.52 0.8829,-0.45241 2.31017,-1.53495 2.31017,-1.53495 0,0 -7.89045,-0.13542 -10.34906,0.71021 -1.65337,0.56866 -2.23892,1.72094 -2.75201,2.8626 -0.60356,1.34376 -0.36335,4.64575 -0.36335,4.64575 z"
         id="path1206"
         inkscape:connector-curvature="0"
         sodipodi:nodetypes="caacaacc" />
      <path
         sodipodi:nodetypes="caacaacc"
         inkscape:connector-curvature="0"
         id="path1208"
         d="m 122.99605,192.51029 c 0,0 2.27457,-2.38306 3.65693,-3.2357 1.4994,-0.92483 3.44761,-1.20509 4.89858,-1.95839 0.6772,-0.35159 1.77194,-1.19287 1.77194,-1.19287 0,0 -6.05211,-0.10524 -7.93792,0.55193 -1.26816,0.44193 -1.71728,1.33741 -2.11084,2.22464 -0.46295,1.04429 -0.27869,3.61039 -0.27869,3.61039 z"
         style="fill:#552200;fill-opacity:1;stroke:#552200;stroke-width:0.11367041px;stroke-linecap:butt;stroke-linejoin:miter;stroke-opacity:1" />
      <path
         style="fill:#552200;fill-opacity:1;stroke:#552200;stroke-width:0.12029757px;stroke-linecap:butt;stroke-linejoin:miter;stroke-opacity:1"
         d="m 130.69563,202.38495 c 0,0 0.61343,-3.49954 1.32383,-5.0786 0.77054,-1.71274 2.29394,-3.09081 3.11989,-4.61797 0.38549,-0.71275 0.85396,-2.11597 0.85396,-2.11597 0,0 -5.28553,3.38356 -6.54143,5.07237 -0.84457,1.13567 -0.72486,2.21746 -0.56183,3.2597 0.19212,1.22658 1.80558,3.48047 1.80558,3.48047 z"
         id="path1210"
         inkscape:connector-curvature="0"
         sodipodi:nodetypes="caacaacc"
         inkscape:transform-center-x="-2.7850416"
         inkscape:transform-center-y="-2.1581364" />
      <path
         inkscape:transform-center-y="-3.2162533"
         inkscape:transform-center-x="-1.3249381"
         sodipodi:nodetypes="caacaacc"
         inkscape:connector-curvature="0"
         id="path1212"
         d="m 136.89504,204.16752 c 0,0 -0.39968,-3.39551 -0.16441,-5.07213 0.25519,-1.81855 1.32648,-3.58282 1.68717,-5.25061 0.16834,-0.77838 0.22136,-2.21403 0.22136,-2.21403 0,0 -4.11137,4.84665 -4.83855,6.80512 -0.48902,1.31702 -0.069,2.26357 0.38145,3.15962 0.53032,1.05446 2.71298,2.57203 2.71298,2.57203 z"
         style="fill:#552200;fill-opacity:1;stroke:#552200;stroke-width:0.11836253px;stroke-linecap:butt;stroke-linejoin:miter;stroke-opacity:1" />
      <path
         sodipodi:nodetypes="caacaacc"
         inkscape:connector-curvature="0"
         id="path1216"
         d="m 119.12744,177.55325 c 0,0 3.35026,-1.34197 5.10514,-1.52119 1.90344,-0.1944 3.94162,0.5374 5.71672,0.50063 0.82847,-0.0172 2.29661,-0.33649 2.29661,-0.33649 0,0 -5.87086,-3.31588 -8.02595,-3.61198 -1.44925,-0.19912 -2.31139,0.51985 -3.11529,1.25939 -0.94592,0.87063 -1.97723,3.70964 -1.97723,3.70964 z"
         style="fill:#552200;fill-opacity:1;stroke:#552200;stroke-width:0.12935625px;stroke-linecap:butt;stroke-linejoin:miter;stroke-opacity:1" />
      <path
         style="fill:#552200;fill-opacity:1;stroke:#552200;stroke-width:0.13179471px;stroke-linecap:butt;stroke-linejoin:miter;stroke-opacity:1"
         d="m 122.30896,169.79868 c 0,0 3.37448,-0.56676 5.04573,-0.30772 1.81274,0.28098 3.58093,1.57958 5.24485,1.99502 0.77659,0.19387 2.20592,0.23081 2.20592,0.23081 0,0 -4.871,-5.02286 -6.82846,-5.88891 -1.31634,-0.58241 -2.25343,-0.04 -3.13993,0.53925 -1.0432,0.68199 -2.52811,3.43155 -2.52811,3.43155 z"
         id="path1218"
         inkscape:connector-curvature="0"
         sodipodi:nodetypes="caacaacc" />
      <path
         sodipodi:nodetypes="caacaacc"
         inkscape:connector-curvature="0"
         id="path1220"
         d="m 128.37877,165.08232 c 0,0 3.62732,-0.5313 5.4238,-0.28847 1.94856,0.2634 3.84924,1.48077 5.63783,1.87021 0.83478,0.18174 2.37121,0.21637 2.37121,0.21637 0,0 -5.23598,-4.70863 -7.3401,-5.5205 -1.41498,-0.54597 -2.42229,-0.0375 -3.37521,0.50552 -1.12136,0.63932 -2.71753,3.21687 -2.71753,3.21687 z"
         style="fill:#552200;fill-opacity:1;stroke:#552200;stroke-width:0.13229984px;stroke-linecap:butt;stroke-linejoin:miter;stroke-opacity:1" />
      <path
         inkscape:transform-center-y="-1.0442664"
         inkscape:transform-center-x="-3.7976281"
         sodipodi:nodetypes="caacaacc"
         inkscape:connector-curvature="0"
         id="path1226"
         d="m 126.03883,197.61012 c 0,0 1.55251,-3.19574 2.66992,-4.51843 1.21199,-1.43467 3.05574,-2.34046 4.26995,-3.58146 0.56669,-0.5792 1.40313,-1.79939 1.40313,-1.79939 0,0 -6.01243,1.7989 -7.68447,3.07703 -1.12442,0.8595 -1.30693,1.93248 -1.43693,2.97935 -0.15274,1.2321 0.7784,3.8429 0.7784,3.8429 z"
         style="fill:#552200;fill-opacity:1;stroke:#552200;stroke-width:0.12029757px;stroke-linecap:butt;stroke-linejoin:miter;stroke-opacity:1" />
      <path
         style="fill:#552200;fill-opacity:1;stroke:#552200;stroke-width:0.11715218px;stroke-linecap:butt;stroke-linejoin:miter;stroke-opacity:1"
         d="m 160.03607,157.32058 c 0,0 1.15307,3.31241 1.31919,5.03774 0.18021,1.8714 -0.41268,3.85784 -0.36545,5.60036 0.022,0.81327 0.30265,2.25985 0.30265,2.25985 0,0 2.71769,-5.69944 2.94522,-7.80867 0.15302,-1.41841 -0.45607,-2.27775 -1.08184,-3.0803 -0.73666,-0.94434 -3.11978,-2.00898 -3.11978,-2.00898 z"
         id="path1252"
         inkscape:connector-curvature="0"
         sodipodi:nodetypes="caacaacc"
         inkscape:transform-center-x="-1.3487637"
         inkscape:transform-center-y="-3.2374959" />
      <path
         inkscape:transform-center-y="-4.1347002"
         inkscape:transform-center-x="-0.68862831"
         sodipodi:nodetypes="caacaacc"
         inkscape:connector-curvature="0"
         id="path1260"
         d="m 151.88633,158.33811 c 0,0 2.94904,2.12408 4.00009,3.47316 1.14004,1.46331 1.47477,3.4547 2.40172,4.8846 0.43263,0.66736 1.47162,1.71953 1.47162,1.71953 0,0 0.17447,-6.28157 -0.62973,-8.17145 -0.54076,-1.27091 -1.65187,-1.64877 -2.75307,-1.96987 -1.29615,-0.37766 -4.49063,0.064 -4.49063,0.064 z"
         style="fill:#552200;fill-opacity:1;stroke:#552200;stroke-width:0.12904073px;stroke-linecap:butt;stroke-linejoin:miter;stroke-opacity:1" />
      <path
         style="fill:#552200;fill-opacity:1;stroke:#552200;stroke-width:0.12904073px;stroke-linecap:butt;stroke-linejoin:miter;stroke-opacity:1"
         d="m 145.73276,156.77055 c 0,0 2.94904,2.12408 4.00009,3.47316 1.14005,1.46331 1.47477,3.45469 2.40172,4.88459 0.43263,0.66737 1.47162,1.71954 1.47162,1.71954 0,0 0.17447,-6.28157 -0.62972,-8.17145 -0.54077,-1.27092 -1.65188,-1.64877 -2.75308,-1.96988 -1.29615,-0.37765 -4.49063,0.064 -4.49063,0.064 z"
         id="path1262"
         inkscape:connector-curvature="0"
         sodipodi:nodetypes="caacaacc"
         inkscape:transform-center-x="-0.68862831"
         inkscape:transform-center-y="-4.1347002" />
      <path
         inkscape:transform-center-y="2.96117"
         inkscape:transform-center-x="-0.43594067"
         sodipodi:nodetypes="caacaacc"
         inkscape:connector-curvature="0"
         id="path1250"
         d="m 169.42205,156.71438 c 0,0 -0.17187,3.41463 -0.68324,5.02859 -0.55472,1.75059 -1.90507,3.31162 -2.53867,4.89597 -0.29567,0.73946 -0.58726,2.14617 -0.58726,2.14617 0,0 4.86163,-4.09364 5.90505,-5.90352 0.70167,-1.2171 0.44524,-2.22041 0.15048,-3.179 -0.34717,-1.1281 -2.24637,-2.98821 -2.24637,-2.98821 z"
         style="fill:#552200;fill-opacity:1;stroke:#552200;stroke-width:0.11836253px;stroke-linecap:butt;stroke-linejoin:miter;stroke-opacity:1" />
      <path
         style="fill:#552200;fill-opacity:1;stroke:#552200;stroke-width:0.11836253px;stroke-linecap:butt;stroke-linejoin:miter;stroke-opacity:1"
         d="m 173.12625,156.71438 c 0,0 1.01503,3.26481 1.09099,4.95614 0.0823,1.83453 -0.64756,3.7652 -0.69655,5.47085 -0.0228,0.79605 0.18806,2.2171 0.18806,2.2171 0,0 3.15372,-5.51792 3.50974,-7.57647 0.23942,-1.38432 -0.34697,-2.23787 -0.95392,-3.03623 -0.71456,-0.93944 -3.13833,-2.03139 -3.13833,-2.03139 z"
         id="path1300"
         inkscape:connector-curvature="0"
         sodipodi:nodetypes="caacaacc"
         inkscape:transform-center-x="-2.0166887"
         inkscape:transform-center-y="3.06824" />
      <path
         style="fill:#552200;fill-opacity:1;stroke:#552200;stroke-width:0.11836253px;stroke-linecap:butt;stroke-linejoin:miter;stroke-opacity:1"
         d="m 144.67053,203.29039 c 0,0 -1.50803,-3.06841 -1.84475,-4.72763 -0.36521,-1.79968 0.0571,-3.82006 -0.15839,-5.51275 -0.10058,-0.78999 -0.52886,-2.1613 -0.52886,-2.1613 0,0 -2.26191,5.93946 -2.29511,8.02831 -0.0223,1.4047 0.68903,2.15725 1.41226,2.85206 0.85131,0.81755 3.41485,1.52131 3.41485,1.52131 z"
         id="path1302"
         inkscape:connector-curvature="0"
         sodipodi:nodetypes="caacaacc"
         inkscape:transform-center-x="-0.59206349"
         inkscape:transform-center-y="-4.0258383" />
      <path
         inkscape:transform-center-y="-4.3569967"
         inkscape:transform-center-x="-0.28956021"
         sodipodi:nodetypes="caacaacc"
         inkscape:connector-curvature="0"
         id="path1304"
         d="m 152.63238,200.57525 c 0,0 -2.44545,-2.38936 -3.3165,-3.84114 -0.9448,-1.57468 -1.2208,-3.6202 -1.98877,-5.14396 -0.35842,-0.71116 -1.21972,-1.86097 -1.21972,-1.86097 0,0 -0.15044,6.3538 0.51525,8.33402 0.44766,1.33164 1.36936,1.80371 2.28297,2.21737 1.07532,0.48664 3.72677,0.29468 3.72677,0.29468 z"
         style="fill:#552200;fill-opacity:1;stroke:#552200;stroke-width:0.11836253px;stroke-linecap:butt;stroke-linejoin:miter;stroke-opacity:1" />
      <path
         inkscape:transform-center-y="-4.3056687"
         inkscape:transform-center-x="0.013901035"
         sodipodi:nodetypes="caacaacc"
         inkscape:connector-curvature="0"
         id="path1306"
         d="m 158.51851,198.20377 c 0,0 -2.60859,-2.21011 -3.58031,-3.59653 -1.05397,-1.50378 -1.47424,-3.52459 -2.34821,-4.99013 -0.40789,-0.68397 -1.34849,-1.76988 -1.34849,-1.76988 0,0 0.30008,6.3485 1.1044,8.27657 0.54091,1.29658 1.4937,1.70216 2.43434,2.05006 1.10708,0.40923 3.73827,0.0299 3.73827,0.0299 z"
         style="fill:#552200;fill-opacity:1;stroke:#552200;stroke-width:0.11836253px;stroke-linecap:butt;stroke-linejoin:miter;stroke-opacity:1" />
      <path
         style="fill:#552200;fill-opacity:1;stroke:#552200;stroke-width:0.11836253px;stroke-linecap:butt;stroke-linejoin:miter;stroke-opacity:1"
         d="m 164.94962,193.52286 c 0,0 -3.09627,-1.44996 -4.39711,-2.53358 -1.41097,-1.17534 -2.34567,-3.01563 -3.5729,-4.20117 -0.57277,-0.55331 -1.76488,-1.35504 -1.76488,-1.35504 0,0 1.95191,6.04842 3.23301,7.69863 0.86151,1.10972 1.88729,1.25166 2.88619,1.34113 1.17562,0.10507 3.61569,-0.94997 3.61569,-0.94997 z"
         id="path1308"
         inkscape:connector-curvature="0"
         sodipodi:nodetypes="caacaacc"
         inkscape:transform-center-x="1.161771"
         inkscape:transform-center-y="-3.7503796" />
      <path
         inkscape:transform-center-y="2.7188"
         inkscape:transform-center-x="-1.6259127"
         sodipodi:nodetypes="caacaacc"
         inkscape:connector-curvature="0"
         id="path1310"
         d="m 175.5937,152.47547 c 0,0 2.23536,2.58698 2.98101,4.10697 0.80869,1.64872 0.91135,3.71019 1.54819,5.29325 0.29728,0.73881 1.05855,1.95713 1.05855,1.95713 0,0 0.68536,-6.31852 0.1889,-8.34778 -0.33384,-1.36463 -1.21251,-1.91266 -2.08797,-2.40188 -1.0305,-0.57553 -3.68869,-0.60769 -3.68869,-0.60769 z"
         style="fill:#552200;fill-opacity:1;stroke:#552200;stroke-width:0.11836253px;stroke-linecap:butt;stroke-linejoin:miter;stroke-opacity:1" />
      <path
         style="fill:#552200;fill-opacity:1;stroke:#552200;stroke-width:0.11836253px;stroke-linecap:butt;stroke-linejoin:miter;stroke-opacity:1"
         d="m 181.18853,136.26938 c 0,0 3.20737,-1.18408 4.89243,-1.34824 1.82773,-0.17797 3.79387,0.45011 5.49975,0.40999 0.79615,-0.0188 2.20426,-0.30356 2.20426,-0.30356 0,0 -5.67504,-2.86135 -7.74937,-3.10941 -1.39493,-0.16682 -2.2167,0.46333 -2.98229,1.11112 -0.90085,0.76264 -1.86477,3.24012 -1.86477,3.24012 z"
         id="path1316"
         inkscape:connector-curvature="0"
         sodipodi:nodetypes="caacaacc"
         inkscape:transform-center-x="-3.0518153"
         inkscape:transform-center-y="-1.9625544" />
      <path
         inkscape:transform-center-y="-1.9625544"
         inkscape:transform-center-x="-3.0518153"
         sodipodi:nodetypes="caacaacc"
         inkscape:connector-curvature="0"
         id="path1318"
         d="m 181.18853,141.56108 c 0,0 3.20737,-1.18408 4.89243,-1.34824 1.82773,-0.17797 3.79387,0.45011 5.49975,0.40999 0.79615,-0.0188 2.20426,-0.30356 2.20426,-0.30356 0,0 -5.67504,-2.86135 -7.74937,-3.10941 -1.39493,-0.16682 -2.2167,0.46333 -2.98229,1.11112 -0.90085,0.76264 -1.86477,3.24012 -1.86477,3.24012 z"
         style="fill:#552200;fill-opacity:1;stroke:#552200;stroke-width:0.11836253px;stroke-linecap:butt;stroke-linejoin:miter;stroke-opacity:1" />
      <path
         style="fill:#552200;fill-opacity:1;stroke:#552200;stroke-width:0.11836253px;stroke-linecap:butt;stroke-linejoin:miter;stroke-opacity:1"
         d="m 181.18853,147.38195 c 0,0 3.20737,-1.18408 4.89243,-1.34824 1.82773,-0.17797 3.79387,0.45011 5.49975,0.40999 0.79615,-0.0188 2.20426,-0.30356 2.20426,-0.30356 0,0 -5.67504,-2.86135 -7.74937,-3.10941 -1.39493,-0.16682 -2.2167,0.46333 -2.98229,1.11112 -0.90085,0.76264 -1.86477,3.24012 -1.86477,3.24012 z"
         id="path1320"
         inkscape:connector-curvature="0"
         sodipodi:nodetypes="caacaacc"
         inkscape:transform-center-x="-3.0518153"
         inkscape:transform-center-y="-1.9625544" />
      <path
         inkscape:transform-center-y="-0.39396857"
         inkscape:transform-center-x="-2.9543653"
         sodipodi:nodetypes="caacaacc"
         inkscape:connector-curvature="0"
         id="path1322"
         d="m 179.60103,148.44031 c 0,0 3.41315,0.19923 5.02296,0.72351 1.74608,0.56876 3.29624,1.93155 4.87547,2.57783 0.73707,0.30155 2.14139,0.60443 2.14139,0.60443 0,0 -4.05455,-4.89428 -5.85601,-5.95216 -1.21143,-0.7114 -2.21677,-0.46301 -3.17769,-0.17597 -1.13085,0.33813 -3.00612,2.22238 -3.00612,2.22238 z"
         style="fill:#552200;fill-opacity:1;stroke:#552200;stroke-width:0.11836253px;stroke-linecap:butt;stroke-linejoin:miter;stroke-opacity:1" />
      <path
         style="fill:#552200;fill-opacity:1;stroke:#552200;stroke-width:0.11836253px;stroke-linecap:butt;stroke-linejoin:miter;stroke-opacity:1"
         d="m 178.01352,153.73201 c 0,0 3.41315,0.19923 5.02296,0.72351 1.74608,0.56876 3.29624,1.93155 4.87547,2.57783 0.73707,0.30155 2.14139,0.60443 2.14139,0.60443 0,0 -4.05455,-4.89428 -5.85601,-5.95216 -1.21143,-0.7114 -2.21677,-0.46301 -3.17769,-0.17597 -1.13085,0.33813 -3.00612,2.22238 -3.00612,2.22238 z"
         id="path1324"
         inkscape:connector-curvature="0"
         sodipodi:nodetypes="caacaacc"
         inkscape:transform-center-x="-2.9543653"
         inkscape:transform-center-y="-0.39396857" />
    </g>
  </g>
  <g
     inkscape:groupmode="layer"
     id="layer5"
     inkscape:label="RightFront" />
  <g
     inkscape:groupmode="layer"
     id="layer4"
     inkscape:label="Legs" />
</svg>
